<?xml version="1.0" standalone="no"?>
<!DOCTYPE svg PUBLIC "-//W3C//DTD SVG 20010904//EN"
 "http://www.w3.org/TR/2001/REC-SVG-20010904/DTD/svg10.dtd">
<svg version="1.0" xmlns="http://www.w3.org/2000/svg"
 width="300.000000pt" height="300.000000pt" viewBox="0 0 300.000000 300.000000"
 preserveAspectRatio="xMidYMid meet">
<metadata>
Created by potrace 1.10, written by Peter Selinger 2001-2011
</metadata>
<g transform="translate(0.000000,300.000000) scale(0.100000,-0.100000)"
fill="#000000" stroke="none">
<path d="M1270 2681 c-170 -37 -170 -37 -170 -80 0 -77 -49 -152 -129 -199
-39 -23 -57 -27 -121 -27 -54 0 -85 6 -110 19 l-35 19 -68 -74 c-117 -125
-199 -253 -258 -402 -24 -58 -59 -180 -59 -199 1 -7 18 -25 39 -40 122 -84
122 -312 0 -396 -21 -15 -38 -33 -39 -40 0 -7 9 -43 19 -80 55 -197 157 -374
300 -523 l68 -71 34 18 c24 13 56 19 109 19 64 0 82 -4 121 -27 79 -46 129
-122 129 -195 0 -42 22 -53 168 -83 170 -34 404 -24 568 25 51 15 52 16 59 62
12 85 63 155 140 196 52 28 174 30 222 4 l32 -17 60 60 c143 144 253 331 308
524 23 84 25 100 13 104 -8 3 -34 24 -57 48 -102 105 -90 286 25 369 48 35 49
35 -4 195 -56 168 -138 302 -267 437 l-79 82 -32 -17 c-44 -24 -169 -23 -216
2 -80 42 -132 114 -145 198 -7 47 -8 47 -60 63 -170 49 -405 60 -565 26z m453
-30 c16 -6 39 -11 51 -11 48 0 81 -27 95 -77 25 -85 96 -169 169 -200 40 -17
135 -24 171 -13 71 22 79 21 113 -13 133 -133 217 -269 282 -456 44 -126 45
-143 7 -171 -17 -11 -44 -45 -61 -75 -28 -49 -31 -63 -31 -134 0 -66 4 -87 26
-127 15 -27 42 -63 61 -80 42 -38 43 -56 5 -165 -58 -166 -133 -297 -240 -418
-70 -80 -80 -85 -133 -66 -52 18 -123 19 -169 3 -91 -31 -178 -123 -200 -212
-14 -59 -29 -67 -178 -91 -167 -28 -420 -11 -532 36 -23 9 -29 19 -35 55 -12
84 -95 177 -187 211 -45 16 -127 16 -177 -2 -52 -18 -62 -13 -131 66 -112 127
-191 263 -245 424 -34 103 -32 118 26 182 59 65 74 110 68 210 -5 78 -26 121
-87 179 -38 35 -39 55 -7 154 53 168 142 319 263 448 l59 63 63 -17 c77 -19
171 -7 230 31 68 42 129 138 131 202 0 25 52 53 99 53 15 0 32 5 38 11 26 26
389 26 456 0z"/>
<path d="M1445 2561 c-80 -12 -194 -92 -231 -164 -34 -65 -39 -85 -39 -156 1
-93 31 -164 95 -229 129 -127 322 -129 453 -4 22 21 43 46 48 57 6 11 19 36
29 55 23 42 27 166 7 220 -55 153 -203 243 -362 221z m171 -51 c54 -23 109
-73 141 -128 36 -61 44 -180 18 -249 -43 -112 -155 -187 -281 -186 -119 0
-220 68 -271 183 -24 53 -22 174 4 230 66 146 242 214 389 150z"/>
<path d="M785 2186 c-67 -17 -104 -37 -154 -85 -107 -103 -128 -285 -48 -406
27 -41 94 -101 137 -122 50 -26 220 -25 272 1 65 32 126 93 158 161 87 182
-17 398 -216 450 -68 17 -82 18 -149 1z m197 -48 c60 -26 131 -102 152 -165
20 -60 20 -146 0 -206 -22 -65 -91 -139 -156 -167 -122 -53 -269 -18 -348 82
-196 247 62 581 352 456z"/>
<path d="M2071 2189 c-91 -18 -182 -93 -226 -186 -23 -47 -27 -70 -27 -135 1
-94 22 -147 86 -216 71 -76 122 -97 236 -97 64 1 106 6 130 17 58 26 125 93
159 160 29 55 32 72 32 140 -1 90 -21 142 -83 213 -49 56 -106 90 -176 104
-59 12 -69 12 -131 0z m187 -49 c104 -45 175 -155 175 -270 0 -261 -317 -393
-502 -209 -59 59 -84 120 -85 204 -1 40 5 85 13 105 69 166 239 239 399 170z"/>
<path d="M1464 1660 c-44 -10 -99 -55 -115 -93 -16 -37 -15 -107 2 -139 36
-69 118 -107 189 -88 41 11 55 22 95 74 48 64 31 160 -39 212 -45 35 -85 45
-132 34z m91 -40 c108 -52 102 -203 -11 -246 -37 -14 -51 -15 -84 -5 -126 38
-129 223 -4 261 44 13 54 12 99 -10z"/>
<path d="M775 1445 c-90 -28 -175 -102 -214 -184 -37 -79 -36 -193 2 -268 35
-68 93 -125 165 -160 73 -36 181 -38 253 -6 83 38 158 120 188 207 26 77 12
196 -32 261 -27 40 -89 105 -100 105 -5 0 -21 8 -35 18 -56 39 -153 51 -227
27z m207 -47 c60 -26 131 -102 152 -165 22 -65 21 -161 -4 -217 -83 -195 -333
-243 -483 -93 -58 58 -82 117 -82 207 0 91 24 150 84 208 93 90 213 112 333
60z"/>
<path d="M2059 1445 c-91 -25 -182 -104 -219 -188 -32 -72 -31 -187 2 -259 43
-93 129 -162 236 -189 100 -25 219 16 296 102 113 125 117 301 10 428 -78 93
-215 138 -325 106z m201 -46 c60 -26 117 -83 146 -144 31 -65 33 -179 5 -242
-88 -192 -335 -239 -483 -91 -58 58 -81 118 -81 208 -1 58 4 86 22 122 72 149
241 212 391 147z"/>
<path d="M1389 1067 c-74 -28 -148 -97 -185 -174 -58 -120 -31 -268 68 -364
65 -63 127 -89 219 -89 106 0 159 21 228 89 31 31 66 74 76 96 37 77 30 236
-12 286 -7 8 -13 20 -13 25 0 17 -84 92 -130 116 -55 28 -193 36 -251 15z
m208 -28 c76 -23 163 -114 184 -192 53 -198 -83 -381 -286 -382 -83 0 -147 27
-207 87 -58 58 -81 118 -81 208 -1 88 22 146 81 205 83 83 192 109 309 74z"/>
</g>
</svg>
