<svg xmlns="http://www.w3.org/2000/svg" xmlns:xlink="http://www.w3.org/1999/xlink" width="1080" zoomAndPan="magnify" viewBox="0 0 810 809.999993" height="1080" preserveAspectRatio="xMidYMid meet" version="1.0"><defs><clipPath id="35cf366cc4"><path d="M 130 0 L 750.394531 0 L 750.394531 810 L 130 810 Z M 130 0 " clip-rule="nonzero"/></clipPath><clipPath id="538d815b8b"><path d="M 59.644531 295 L 75 295 L 75 312 L 59.644531 312 Z M 59.644531 295 " clip-rule="nonzero"/></clipPath></defs><g clip-path="url(#35cf366cc4)"><path fill="#ff3131" d="M 509.191406 561.769531 C 504.949219 561.769531 500.707031 561.769531 495.273438 561.769531 C 500.230469 570.996094 499.140625 579.089844 496.394531 587.285156 C 495.34375 590.386719 494.875 591.621094 490.734375 590.582031 C 476.917969 587.113281 465.171875 581.273438 457.335938 568.65625 C 455.089844 565.03125 450.933594 562.597656 446.28125 558.378906 C 443.292969 578.863281 440.398438 596.9375 438.070312 615.082031 C 434.09375 646.054688 430.589844 677.089844 426.675781 708.070312 C 424.257812 727.242188 422.207031 746.503906 418.527344 765.445312 C 416.601562 775.386719 412.046875 784.929688 407.773438 794.242188 C 401.925781 806.960938 390.910156 811.144531 377.613281 809.75 C 354.554688 807.347656 338.609375 787.097656 341.839844 764.367188 C 342.21875 761.75 343.460938 758.847656 345.214844 756.90625 C 367.765625 732 379.625 701.769531 386.089844 669.699219 C 391.742188 641.625 394.597656 612.96875 398.191406 584.492188 C 399.53125 573.886719 392.34375 565.414062 381.863281 563.78125 C 375.5 562.785156 370.386719 558.832031 370.410156 553.15625 C 370.441406 545.324219 364.539062 544.585938 360.351562 543.195312 C 358.394531 542.535156 354.625 547.304688 351.257812 549.941406 C 350.554688 548.5625 349.472656 546.511719 348.101562 543.835938 C 346.21875 545.261719 344.511719 547.066406 342.414062 547.976562 C 340.566406 548.789062 337.941406 549.433594 336.253906 548.726562 C 327.296875 545.015625 321.890625 547.84375 320.792969 557.078125 C 320.425781 560.1875 320.300781 563.457031 319.132812 566.292969 C 318.328125 568.25 315.980469 569.5625 314.304688 571.160156 C 312.816406 569.375 310.703125 567.804688 309.992188 565.753906 C 309.339844 563.875 310.195312 561.472656 310.398438 559.300781 L 310.132812 559.617188 C 311.628906 555.285156 313.378906 551.019531 314.515625 546.597656 C 314.890625 545.160156 314.117188 542.417969 313.050781 541.871094 C 311.597656 541.136719 308.964844 541.316406 307.566406 542.222656 C 303.699219 544.742188 300.035156 545.378906 296.347656 542.386719 C 292.449219 539.21875 291.832031 535.1875 293.890625 530.605469 C 296.542969 524.714844 293.609375 519.507812 290.851562 514.875 C 287.832031 509.800781 277.046875 510.867188 274.078125 516.574219 C 270.519531 523.429688 267.792969 530.738281 264.890625 537.925781 C 262.101562 544.84375 260.246094 552.21875 256.726562 558.714844 C 250.363281 570.410156 240.484375 572.71875 228.976562 566.222656 C 215.648438 558.675781 210.972656 548.929688 214.472656 534.105469 C 215.953125 527.828125 218.363281 521.675781 221.125 515.820312 C 229.367188 498.304688 228.476562 480.003906 226.386719 461.546875 C 225.28125 451.925781 221.707031 443.808594 216.0625 435.394531 C 208.953125 424.804688 199.101562 417.890625 190.582031 409.21875 C 183.640625 402.175781 178.339844 394.199219 178.402344 383.820312 C 178.449219 377.023438 182.386719 371.617188 187.8125 370.199219 C 195.726562 368.132812 203.117188 370.363281 206.464844 376.359375 C 209.925781 382.597656 212.945312 389.109375 216.085938 395.535156 C 219.867188 403.292969 222.714844 403.746094 227.246094 396.6875 C 230.566406 391.511719 235.238281 390.003906 240.835938 390.160156 C 246.472656 390.308594 252.097656 390.832031 257.710938 390.628906 C 259.441406 390.566406 261.101562 388.65625 262.777344 387.59375 C 261.4375 386.292969 260.160156 384.921875 258.761719 383.710938 C 253.25 378.878906 247.042969 374.652344 242.371094 369.125 C 238.378906 364.40625 240.429688 360.59375 245.179688 355.484375 C 250.636719 349.597656 258.324219 345.917969 261.242188 337.277344 C 263.253906 331.304688 260.167969 327.640625 257.703125 323.78125 C 257 322.6875 252.027344 323.554688 249.4375 324.582031 C 226.105469 333.832031 204.101562 345.589844 183.742188 360.351562 C 179.632812 363.351562 176.808594 366.496094 175.421875 371.9375 C 172.527344 383.230469 163.6875 389.683594 153.058594 390.089844 C 136.839844 390.722656 125.921875 376.1875 131.480469 361.042969 C 132.238281 358.976562 134.320312 357.121094 136.238281 355.8125 C 144.425781 350.207031 152.894531 345.003906 161.035156 339.34375 C 166.144531 335.78125 170.828125 331.578125 175.820312 327.796875 C 181.011719 323.875 186.734375 321.925781 193.394531 323.328125 C 195.421875 323.75 197.996094 323.875 199.6875 322.976562 C 201.980469 321.746094 205.183594 319.375 205.191406 317.488281 C 205.191406 315.328125 202.480469 312.472656 200.226562 311.257812 C 198.855469 310.507812 195.78125 311.773438 194.074219 313.011719 C 186.890625 318.179688 181.785156 317.699219 177.613281 311.023438 C 172.558594 302.90625 175.710938 296.707031 185.230469 295.03125 C 187.773438 294.570312 190.582031 292.683594 192.242188 290.625 C 199.4375 281.742188 208.164062 282.453125 213.667969 292.707031 C 215.398438 295.925781 216.984375 299.210938 218.847656 302.34375 C 223.789062 310.664062 232.976562 310.953125 240.09375 309.792969 C 245.257812 308.980469 250.136719 302.375 253.78125 297.355469 C 256.796875 293.214844 254.925781 288.714844 250.707031 285.074219 C 240.03125 275.878906 238.207031 263.285156 240.734375 250.667969 C 247.082031 218.800781 264.796875 193.722656 291.347656 175.679688 C 299.707031 169.980469 311.078125 168.4375 321.285156 165.902344 C 325.371094 164.878906 327.4375 163.65625 327.273438 159.5 C 326.875 149.582031 327 139.984375 318.5625 132.066406 C 309.851562 123.902344 311.015625 108.410156 319.515625 99.816406 C 327.816406 91.464844 341.183594 90.84375 350.183594 98.421875 C 357.519531 104.597656 359.59375 113.230469 355.640625 122.117188 C 352.332031 129.542969 347.117188 135.5 339.210938 137.855469 C 334.148438 139.359375 333.621094 142.265625 334.859375 146.175781 C 341.050781 165.839844 337.941406 164.46875 354.105469 154.9375 C 358.953125 152.085938 363.640625 148.894531 368.679688 146.453125 C 383.382812 139.382812 395.632812 141.394531 407.410156 152.511719 C 418.308594 162.789062 429.15625 173.136719 440.082031 183.5 C 441.929688 181.816406 443.363281 180.601562 444.6875 179.28125 C 446.125 177.855469 453.632812 174.730469 455.792969 174.683594 C 462.195312 174.550781 466.335938 170.859375 468.839844 165.496094 C 471.886719 159.03125 474.359375 152.28125 477.019531 145.652344 C 480.339844 137.386719 485.570312 132.027344 494.695312 129.261719 C 507.210938 125.472656 513.425781 114.054688 519.585938 103.636719 C 536.265625 75.472656 552.242188 46.894531 568.875 18.699219 C 572.15625 13.140625 576.695312 8.101562 581.449219 3.703125 C 588.007812 -2.347656 596.84375 -0.78125 602.683594 6.652344 C 608.757812 14.394531 608.695312 24.929688 601.15625 28.96875 C 576.609375 42.097656 564.125 65.117188 550.984375 87.769531 C 544.085938 99.652344 537.207031 111.535156 529.988281 123.203125 C 524.386719 132.261719 520.894531 141.636719 522.835938 152.464844 C 525.503906 167.304688 524.148438 181.542969 517.558594 195.351562 C 514.140625 202.527344 515.265625 204.304688 522.429688 208.890625 C 532.683594 215.488281 536.839844 214.832031 543.960938 204.921875 C 547.21875 200.390625 549.558594 195.175781 552.933594 190.753906 C 557.230469 185.175781 561.652344 179.476562 566.972656 174.945312 C 573.589844 169.316406 578.503906 162.890625 582.308594 155.164062 C 587.386719 144.878906 591.050781 133.683594 600.132812 125.738281 C 605.507812 121.027344 609.84375 120.355469 614.015625 124.105469 C 618.714844 128.308594 619.613281 135.085938 616.136719 140.0625 C 615.964844 140.308594 615.722656 140.542969 615.488281 140.738281 C 600.164062 153.089844 596.757812 170.738281 594.503906 188.84375 C 602.410156 191.507812 606.121094 195.664062 605.21875 202.277344 C 604.820312 205.085938 602.761719 207.664062 601.453125 210.355469 C 598.894531 208.960938 595.738281 208.09375 593.957031 206.035156 C 592.375 204.195312 591.503906 200.976562 591.734375 198.480469 C 592.195312 193.339844 589.578125 191.453125 585.335938 190.082031 C 574.433594 186.574219 571.453125 187.875 566.644531 198.738281 C 565.886719 200.453125 565.175781 202.167969 564.523438 203.9375 C 560.125 216.054688 561.605469 218.199219 574.144531 218.128906 C 576.015625 218.113281 578.410156 217.289062 579.695312 218.136719 C 590.753906 225.492188 597.039062 216.8125 604.726562 211.496094 C 607.613281 209.492188 612.296875 208.578125 615.746094 209.25 C 620.484375 210.183594 622.386719 214.441406 621.695312 219.480469 C 621.078125 223.941406 618.769531 225.648438 614.140625 225.742188 C 610.496094 225.820312 606.910156 227.503906 603.238281 228.226562 C 597.484375 229.382812 592.554688 231.089844 592.09375 238.332031 C 591.976562 240.144531 590.066406 241.859375 588.8125 243.886719 C 590.089844 244.371094 591.914062 245.179688 593.832031 245.71875 C 597.972656 246.886719 600.140625 245.640625 600.773438 240.96875 C 601.5 235.691406 608.4375 232.167969 613.070312 234.285156 C 614.078125 234.738281 615.121094 235.816406 615.488281 236.859375 C 616.984375 241.007812 613.289062 251.042969 609.5625 254.140625 C 608.351562 255.160156 606.574219 257.554688 606.910156 258.03125 C 609.90625 262.429688 605.242188 270.867188 616.390625 271.464844 C 625.46875 271.949219 632.851562 288.519531 630.09375 297.789062 C 629.484375 299.863281 626.644531 301.253906 624.804688 302.953125 C 623.839844 303.847656 622.824219 304.714844 621.835938 305.574219 C 622.800781 306.484375 623.691406 308.074219 624.734375 308.183594 C 627.847656 308.488281 631.261719 307.804688 631.910156 312.261719 C 632.519531 316.457031 629.328125 317.652344 626.753906 320.054688 C 619.714844 326.554688 609.296875 328.542969 604.125 337.542969 C 603.089844 339.34375 599.992188 340.585938 597.671875 340.925781 C 591.066406 341.878906 589.886719 346.597656 590.074219 351.703125 C 590.417969 360.882812 591.355469 370.035156 592.140625 379.191406 C 592.632812 384.992188 597.367188 391.191406 603.113281 391.960938 C 608.890625 392.734375 615.214844 393.390625 620.664062 391.84375 C 631.855469 388.679688 642.304688 386.753906 653.070312 393.375 C 655.855469 395.097656 660.746094 395.128906 664.019531 394.003906 C 675.777344 390.019531 687.917969 390.957031 699.914062 390.121094 C 707.0625 389.625 714.277344 389.667969 721.332031 388.609375 C 726.378906 387.835938 731.125 384.992188 736.171875 384.265625 C 740.429688 383.648438 744.953125 384.601562 749.300781 385.289062 C 749.753906 385.359375 750.519531 389.007812 749.800781 389.832031 C 746.566406 393.554688 743.289062 397.453125 737.160156 395.347656 C 734.402344 394.410156 731.195312 394.261719 728.25 394.488281 C 714.269531 395.480469 700.324219 396.796875 686.34375 397.878906 C 673.539062 398.863281 661.460938 403.550781 647.886719 401.742188 C 635.464844 400.101562 622.417969 403.152344 609.648438 404.234375 C 608.210938 404.359375 606.847656 405.148438 605.039062 405.757812 C 606.613281 409.015625 608.28125 411.636719 609.140625 414.496094 C 609.8125 416.703125 610.457031 419.808594 609.429688 421.5 C 603.472656 431.355469 607.511719 439.847656 612.203125 448.449219 C 614.871094 453.351562 618.0625 458.375 615.613281 464.269531 C 613.367188 469.6875 616.152344 471.769531 620.664062 473.066406 C 621.554688 473.324219 622.582031 473.261719 623.402344 473.664062 C 627.332031 475.539062 633.390625 473.804688 634.722656 480.113281 C 635.824219 485.371094 631.089844 496.425781 626.390625 499.015625 C 616.984375 504.195312 607.957031 510.648438 595.984375 505.699219 C 593.453125 504.660156 588.75 506.035156 586.410156 507.953125 C 581.519531 511.960938 577.621094 517.160156 573.109375 521.667969 C 571.703125 523.078125 569.761719 524.421875 567.875 524.769531 C 563.585938 525.558594 559.195312 525.863281 554.824219 526.042969 C 548.25 526.339844 542.550781 527.875 539.78125 534.722656 C 539.3125 535.859375 538.640625 537.582031 537.792969 537.761719 C 529.761719 539.445312 526.757812 543.890625 526.96875 552.296875 C 527.023438 554.433594 520.316406 556.929688 516.566406 558.933594 C 514.15625 560.21875 511.453125 560.914062 508.878906 561.871094 Z M 509.191406 561.769531 " fill-opacity="1" fill-rule="nonzero"/></g><path fill="#ff3131" d="M 205.597656 227.457031 C 204.796875 237.078125 204.578125 246.792969 203.085938 256.300781 C 201.292969 267.636719 194.183594 275.160156 183.71875 279.871094 C 180.808594 281.183594 177.488281 283.496094 176.226562 286.226562 C 173.457031 292.175781 168.769531 293.230469 163.265625 293.285156 C 146.375 293.496094 133.136719 286.226562 123.070312 272.996094 C 112.128906 258.625 108.761719 241.320312 104.945312 224.257812 C 103.792969 219.097656 106.765625 215.496094 110.34375 212.054688 C 115.496094 207.105469 120.542969 202.003906 125.105469 196.515625 C 134.414062 185.316406 151.046875 180.625 166.003906 186.058594 C 177.683594 190.308594 189.167969 195.136719 200.554688 200.125 C 202.238281 200.859375 203.796875 203.828125 203.914062 205.832031 C 204.320312 212.992188 204.078125 220.203125 204.078125 227.386719 C 204.570312 227.417969 205.078125 227.441406 205.597656 227.457031 Z M 205.597656 227.457031 " fill-opacity="1" fill-rule="nonzero"/><path fill="#ff3131" d="M 616.984375 658.023438 C 627.582031 640.167969 643.566406 634.632812 656.425781 649.324219 C 662.140625 655.855469 665.742188 661.199219 662.171875 670.6875 C 659.824219 676.917969 661.726562 684.746094 661.726562 693.675781 C 658.984375 691.492188 657.742188 690.539062 656.535156 689.519531 C 655.386719 688.558594 653.507812 686.492188 653.25 686.703125 C 645.757812 692.125 640.371094 684.535156 634.699219 682.78125 C 626.863281 680.363281 619.480469 674.6875 617.304688 663.054688 C 613.609375 674.4375 606.972656 667.023438 602.121094 667.179688 C 591.402344 667.523438 579.734375 654.859375 580.03125 643.675781 C 580.34375 631.886719 589.351562 622.460938 601.335938 621.710938 C 606.808594 621.375 612.71875 625.992188 614.199219 633.273438 C 615.707031 640.730469 615.964844 648.457031 616.984375 658.023438 Z M 616.984375 658.023438 " fill-opacity="1" fill-rule="nonzero"/><path fill="#ff3131" d="M 540.566406 612.742188 C 540.699219 601.578125 546.804688 593.296875 555.046875 593.375 C 563.828125 593.46875 568.507812 601.429688 569.085938 609.140625 C 569.730469 617.53125 560.046875 627.339844 552.21875 627.035156 C 546.011719 626.789062 540.484375 620.003906 540.566406 612.742188 Z M 540.566406 612.742188 " fill-opacity="1" fill-rule="nonzero"/><path fill="#ff3131" d="M 671.636719 674.625 C 672.019531 665.683594 678.421875 657.835938 684.988281 658.242188 C 691.546875 658.664062 697.566406 666.617188 697.355469 674.609375 C 697.152344 682.203125 690.304688 691.078125 684.707031 691 C 678.539062 690.90625 671.320312 681.863281 671.636719 674.625 Z M 671.636719 674.625 " fill-opacity="1" fill-rule="nonzero"/><path fill="#ff3131" d="M 161.019531 583.261719 C 154.0625 590.832031 147.964844 597.40625 141.9375 604.035156 C 137.121094 609.351562 132.402344 614.730469 127.628906 620.066406 C 126.578125 621.226562 125.601562 622.53125 124.324219 623.386719 C 120.824219 625.710938 117.359375 629.335938 112.730469 626.101562 C 110.3125 624.410156 111.652344 614.179688 115.417969 612.71875 C 131.949219 606.273438 142.398438 591.730469 156.925781 582.714844 C 157.300781 582.472656 158.0625 582.832031 161.019531 583.261719 Z M 161.019531 583.261719 " fill-opacity="1" fill-rule="nonzero"/><path fill="#ff3131" d="M 420.773438 148.941406 C 415.261719 149.050781 410.292969 144.699219 410.105469 139.585938 C 409.933594 134.859375 414.871094 130.710938 421.0625 130.390625 C 426.855469 130.09375 430.253906 132.871094 430.433594 138.085938 C 430.667969 144.738281 427.042969 148.816406 420.773438 148.941406 Z M 420.773438 148.941406 " fill-opacity="1" fill-rule="nonzero"/><path fill="#ff3131" d="M 310.390625 559.292969 C 308.042969 562.519531 305.664062 565.714844 303.371094 568.96875 C 300.316406 573.304688 298.101562 573.390625 294.664062 569.265625 C 290.34375 564.085938 290.578125 555.71875 295.722656 551.46875 C 296.941406 550.457031 299.957031 551.570312 302.140625 551.773438 C 306.890625 552.234375 309.160156 555.253906 310.132812 559.609375 Z M 310.390625 559.292969 " fill-opacity="1" fill-rule="nonzero"/><path fill="#ff3131" d="M 543.921875 174.976562 C 543.601562 175.671875 543.390625 177.269531 542.511719 177.800781 C 538.734375 180.171875 535.523438 182.503906 537.894531 187.804688 C 538.019531 188.085938 533.582031 191.453125 532.722656 190.933594 C 530.160156 189.425781 526.105469 185.441406 526.570312 184.609375 C 529.417969 179.5 532.816406 174.386719 537.121094 170.457031 C 539.921875 167.921875 544.078125 170.820312 543.921875 174.976562 Z M 543.921875 174.976562 " fill-opacity="1" fill-rule="nonzero"/><path fill="#ff3131" d="M 508.949219 561.949219 C 514.53125 564.367188 518.851562 574.488281 515.273438 577.894531 C 513.417969 579.667969 509.308594 580.835938 507.125 580 C 504.886719 579.136719 502.710938 575.605469 502.3125 572.984375 C 501.519531 567.828125 505.253906 564.53125 509.199219 561.769531 Z M 508.949219 561.949219 " fill-opacity="1" fill-rule="nonzero"/><g clip-path="url(#538d815b8b)"><path fill="#ff3131" d="M 59.847656 304.644531 C 59.644531 298.773438 62.582031 295.546875 67.699219 295.539062 C 71.542969 295.53125 75.542969 297.519531 74.238281 301.363281 C 72.898438 305.269531 69.460938 309.945312 65.859375 311.21875 C 61.6875 312.691406 60.171875 307.789062 59.847656 304.644531 Z M 59.847656 304.644531 " fill-opacity="1" fill-rule="nonzero"/></g><path fill="#ff3131" d="M 527.25 599.425781 C 527.070312 604.199219 521.824219 609.859375 518.351562 608.394531 C 515.898438 607.339844 513.441406 603.980469 512.902344 601.257812 C 512.089844 597.148438 516.941406 592.097656 520.449219 592.53125 C 524.542969 593.023438 527.203125 595.261719 527.25 599.425781 Z M 527.25 599.425781 " fill-opacity="1" fill-rule="nonzero"/><path fill="#ff3131" d="M 513.292969 639.023438 C 509.246094 642.242188 506.773438 645.578125 503.617188 646.421875 C 499.382812 647.566406 497.625 643.660156 497.984375 640.058594 C 498.414062 635.785156 501.011719 632.066406 505.636719 632.480469 C 507.847656 632.691406 509.777344 635.886719 513.292969 639.023438 Z M 513.292969 639.023438 " fill-opacity="1" fill-rule="nonzero"/><path fill="#ff3131" d="M 482.984375 610.320312 C 479.417969 613.265625 477.507812 615.613281 475.0625 616.441406 C 474.140625 616.773438 470.695312 613.65625 470.726562 612.136719 C 470.773438 609.851562 472.847656 607.613281 474.0625 605.351562 C 476.503906 606.707031 478.929688 608.058594 482.984375 610.320312 Z M 482.984375 610.320312 " fill-opacity="1" fill-rule="nonzero"/></svg>