<svg xmlns="http://www.w3.org/2000/svg" xmlns:xlink="http://www.w3.org/1999/xlink" width="1080" zoomAndPan="magnify" viewBox="0 0 810 809.999993" height="1080" preserveAspectRatio="xMidYMid meet" version="1.0"><defs><clipPath id="89562191dc"><path d="M 75.84375 20 L 542 20 L 542 577 L 75.84375 577 Z M 75.84375 20 " clip-rule="nonzero"/></clipPath><clipPath id="6b22a6358a"><path d="M 664 222 L 734.34375 222 L 734.34375 276 L 664 276 Z M 664 222 " clip-rule="nonzero"/></clipPath></defs><g clip-path="url(#89562191dc)"><path fill="#ff3131" d="M 143.136719 503.230469 C 140.886719 507.039062 138.859375 510.960938 136.363281 514.59375 C 133.582031 518.636719 134.109375 521.621094 136.855469 525.835938 C 143.804688 536.449219 142.855469 551.25 135.648438 560.441406 C 126.222656 572.472656 109.570312 578.949219 97.4375 575.164062 C 85.609375 571.472656 74.765625 557.742188 75.945312 544.101562 C 77.027344 531.558594 86.515625 518.898438 98.992188 516.191406 C 102.933594 515.332031 107.210938 515.949219 111.332031 515.914062 C 114.265625 515.882812 118.601562 517.140625 119.882812 515.6875 C 128.652344 505.710938 143.113281 500.269531 144.847656 484.542969 C 145.53125 478.320312 147.039062 472.160156 148.359375 466.023438 C 149.28125 461.710938 150.054688 457.261719 151.714844 453.230469 C 155.265625 444.574219 151.324219 436.265625 150.863281 427.859375 C 150.703125 424.910156 147.6875 422.695312 143.332031 424.261719 C 138.625 425.953125 133.523438 426.992188 128.546875 427.234375 C 125.136719 427.390625 121.277344 426.351562 118.246094 424.683594 C 104.300781 417.085938 93.082031 393.578125 95.3125 377.992188 C 95.675781 375.476562 95.886719 372.074219 94.542969 370.339844 C 89.226562 363.480469 92.28125 357.351562 96.285156 352.179688 C 107.527344 337.679688 123.261719 332.75 141.007812 333.375 C 146.679688 333.570312 151.964844 338.820312 154.859375 345.371094 C 156.199219 348.410156 158.582031 349.125 161.328125 346.605469 C 167.933594 340.566406 174.535156 334.519531 181.222656 328.558594 C 185.65625 324.605469 188.71875 320.226562 188.644531 313.839844 C 188.597656 309.007812 190.308594 304.859375 194.921875 301.890625 C 199.671875 298.851562 200.15625 291.148438 207.144531 290.015625 C 207.664062 289.925781 208.410156 287.363281 208.019531 286.351562 C 207.183594 284.164062 206.148438 281.429688 204.347656 280.34375 C 194.863281 274.671875 194.855469 265.800781 195.261719 256.480469 C 195.332031 254.988281 193.832031 252.339844 192.625 252.070312 C 187.6875 250.96875 188.242188 248.59375 189.625 244.808594 C 190.949219 241.207031 191.597656 237.210938 191.695312 233.363281 C 191.878906 226.957031 185.960938 222.507812 179.597656 223.8125 C 178.132812 224.121094 176.746094 224.828125 175.296875 225.167969 C 165.089844 227.519531 157.152344 222.800781 155.5 213.476562 C 153.796875 203.871094 160.730469 194.355469 170.652344 193.878906 C 175.917969 193.632812 181.429688 194.648438 186.539062 196.074219 C 190.710938 197.234375 192.730469 196.554688 193.90625 192.425781 C 194.628906 189.839844 195.902344 187.410156 196.898438 184.902344 C 198.535156 180.8125 198.234375 178.207031 193.550781 175.613281 C 187.882812 172.46875 183.191406 167.542969 178.125 163.328125 C 175.296875 160.96875 173.414062 160.96875 170.78125 164.210938 C 166.328125 169.707031 161.589844 170.25 157.851562 166.683594 C 153.652344 162.710938 152.421875 154.101562 155.558594 150.097656 C 157.882812 147.144531 160.621094 146.441406 164.320312 147.925781 C 170.488281 150.40625 175.019531 148.207031 178.941406 142.808594 C 184.941406 134.574219 189.222656 125.488281 189.683594 115.582031 C 190.015625 108.101562 193.085938 103.941406 198.925781 100.601562 C 200.457031 99.726562 201.746094 98.40625 203.421875 97.074219 C 202.546875 95.664062 201.71875 94.480469 201 93.226562 C 197.546875 87.308594 197.789062 82.855469 201.746094 79.421875 C 206.082031 75.667969 211.527344 75.78125 216.101562 81.027344 C 221.914062 87.695312 229.0625 90.296875 237.492188 90.9375 C 245.535156 91.546875 249.164062 89.738281 251.628906 81.691406 C 253.890625 74.289062 254.960938 66.523438 257.140625 59.089844 C 258.050781 55.992188 260.164062 53.074219 262.28125 50.515625 C 267.769531 43.867188 274.878906 38.6875 277.457031 29.625 C 280.308594 19.605469 290.976562 17.816406 298.53125 25.515625 C 305.699219 32.828125 305.761719 32.859375 300.128906 42.59375 C 297.097656 47.847656 296.101562 52.476562 299.632812 58.457031 C 303.273438 64.675781 306.71875 71.65625 299.382812 78.8125 C 295.136719 82.9375 299.949219 92.121094 306.03125 92.664062 C 308.074219 92.84375 310.171875 92.691406 312.496094 92.691406 C 314.921875 83.335938 312.699219 74.523438 308.808594 65.890625 C 304.910156 57.300781 308.273438 47.351562 315.78125 42.082031 C 328.792969 32.949219 343.875 29.925781 358.96875 28.464844 C 364.652344 27.914062 370.820312 33.101562 376.84375 35.484375 C 379 36.328125 381.382812 36.96875 383.667969 37.042969 C 388.109375 37.195312 392.632812 36.335938 397.011719 36.886719 C 401.671875 37.472656 404.460938 40.574219 404.089844 45.714844 C 403.75 50.515625 403.667969 55.351562 403.019531 60.113281 C 401.980469 67.683594 405.410156 72.085938 413.230469 72.660156 C 419.976562 73.15625 424.695312 78.449219 425.941406 85.25 C 427.15625 91.96875 429.242188 98.550781 431.300781 105.074219 C 432.582031 109.097656 435.109375 110.152344 438.742188 107.070312 C 441.894531 104.402344 445.121094 104.777344 448.703125 106.917969 C 450.269531 107.855469 453.585938 107.90625 454.929688 106.851562 C 466.171875 97.96875 478.605469 100.472656 490.039062 104.539062 C 498.347656 107.476562 506.53125 109.40625 515.117188 110.464844 C 521.59375 111.261719 524.4375 114.707031 522.792969 120.785156 C 521.253906 126.453125 518.5625 131.800781 516.664062 137.378906 C 516.082031 139.113281 515.59375 141.753906 516.480469 142.972656 C 519.882812 147.730469 523.214844 152.925781 527.761719 156.378906 C 534.773438 161.703125 538.574219 168.171875 539.320312 176.71875 C 539.492188 178.816406 539.5 180.964844 539.945312 183.007812 C 545.378906 208.542969 529.789062 220.765625 514.128906 233.09375 C 511.484375 235.164062 508.8125 237.578125 507.148438 240.414062 C 504.578125 244.777344 502.59375 249.550781 500.867188 254.332031 C 499.050781 259.328125 494.355469 263.429688 497.527344 270.019531 C 500.851562 276.964844 490.410156 276.582031 489.828125 282.625 C 488.578125 296.101562 480.511719 302.683594 466.855469 302.742188 C 465.046875 302.75 461.988281 304.785156 461.664062 306.355469 C 460.457031 311.863281 454.117188 316.125 457.539062 322.925781 C 457.945312 323.710938 455.3125 327.328125 454.523438 327.183594 C 448.128906 326.085938 447.925781 330.796875 447.019531 334.6875 C 445.046875 343.125 443.765625 351.75 441.3125 360.027344 C 438.589844 369.171875 435.765625 378.484375 431.347656 386.867188 C 425.554688 397.824219 422.148438 410.292969 412.484375 419.070312 C 411.78125 419.695312 412.511719 421.796875 412.421875 423.207031 C 411.835938 432.125 405.734375 437.960938 396.605469 438.414062 C 396 438.445312 395.359375 438.285156 394.808594 438.445312 C 384.632812 441.160156 377.167969 436.144531 369.777344 430.195312 C 367.164062 428.109375 363.460938 427.390625 360.46875 425.679688 C 357.828125 424.179688 353.71875 422.460938 353.351562 420.3125 C 351.992188 412.742188 347.597656 407.34375 342.394531 402.625 C 335.804688 396.652344 328.597656 391.359375 321.640625 385.8125 C 320.222656 384.695312 318.105469 384.046875 317.34375 382.621094 C 312.886719 374.40625 303.71875 372.1875 297.308594 366.511719 C 296.214844 365.554688 294.769531 364.738281 293.375 364.453125 C 286.371094 362.996094 282.222656 366.359375 282.539062 373.621094 C 282.742188 378.355469 283.761719 383.058594 284.554688 387.765625 C 284.734375 388.902344 285.625 389.929688 285.871094 391.074219 C 286.898438 395.671875 294.242188 412.675781 296.53125 415.683594 C 296.828125 416.066406 296.683594 416.785156 296.804688 418.035156 C 294.925781 417.816406 293.214844 417.605469 290.238281 417.25 C 292.339844 420.464844 293.691406 422.746094 295.265625 424.84375 C 297.429688 427.738281 299.949219 430.355469 302 433.332031 C 304.207031 436.546875 308.753906 439.886719 303.597656 443.941406 C 298.757812 447.769531 296.382812 442.691406 294.316406 440.027344 C 288.925781 433.199219 283.859375 426.050781 279.261719 418.660156 C 275.167969 412.09375 271.832031 405.046875 268.222656 398.183594 C 264.933594 391.964844 264.84375 392.410156 259.039062 395.703125 C 254.003906 398.5625 248 399.65625 242.617188 401.96875 C 237.242188 404.277344 231.277344 406.175781 227.011719 409.894531 C 212.964844 422.160156 199.273438 434.894531 186.011719 448.019531 C 178.382812 455.558594 171.734375 464.117188 164.820312 472.363281 C 162.957031 474.589844 161.742188 477.332031 160.226562 479.84375 C 159.15625 478.894531 158.101562 477.953125 157.039062 477.007812 C 161.085938 471.355469 165.128906 465.699219 169.191406 460.054688 C 173.761719 453.71875 178.222656 447.320312 182.980469 441.113281 C 186.148438 436.988281 186.796875 433.914062 182.589844 429.570312 C 178.828125 425.679688 176.664062 420.253906 173.648438 415.261719 C 168.390625 420.046875 166.296875 424.8125 166.453125 431.070312 C 166.6875 441.089844 163.671875 450.257812 158.011719 458.742188 C 155.96875 461.78125 155.882812 466.101562 154.640625 469.742188 C 150.789062 481.035156 146.808594 492.277344 142.871094 503.539062 Z M 143.136719 503.230469 " fill-opacity="1" fill-rule="nonzero"/></g><path fill="#ff3131" d="M 439.066406 671.210938 C 439.414062 655.347656 444.300781 645.515625 455.652344 639.921875 C 459.015625 638.257812 459.664062 636.339844 459.792969 633.0625 C 460.011719 627.4375 461.246094 621.820312 461.121094 616.234375 C 461.050781 613.773438 459.226562 610.496094 457.183594 609.152344 C 454.039062 607.082031 450.113281 605.804688 446.351562 605.136719 C 432.855469 602.738281 424.667969 581.296875 430.871094 570.964844 C 433.683594 566.308594 433.085938 562.09375 430.3125 557.5 C 422.601562 544.773438 428.585938 538.652344 439.78125 534.277344 C 440.574219 533.953125 441.613281 534.210938 442.429688 533.894531 C 454.214844 529.289062 456.730469 530.066406 462.988281 540.859375 C 464.769531 543.945312 466.042969 547.328125 467.640625 550.535156 C 468.425781 552.132812 469.277344 554.839844 470.332031 554.976562 C 479.976562 556.160156 478.152344 565.296875 481.226562 570.753906 C 484.929688 577.335938 483.859375 584.753906 480.78125 591.59375 C 476.945312 600.136719 478.828125 606.960938 485.472656 613.445312 C 494.226562 621.984375 494.777344 627.089844 488.066406 636.882812 C 484.761719 641.714844 487.347656 644.761719 489.753906 648.070312 C 495.25 655.71875 498.5 663.941406 495.867188 673.34375 C 491.300781 689.644531 480.746094 698.230469 462.800781 696.949219 C 449.125 695.949219 438.960938 683.019531 439.066406 671.210938 Z M 439.066406 671.210938 " fill-opacity="1" fill-rule="nonzero"/><path fill="#ff3131" d="M 551.292969 687.519531 C 549.859375 691.855469 548.847656 696.84375 546.648438 701.25 C 538.300781 717.949219 519.074219 716.515625 509.671875 704.144531 C 505.089844 698.097656 503.921875 698.351562 501.027344 705.039062 C 498.863281 710.007812 495.257812 712.707031 489.605469 711.554688 C 484.761719 710.566406 482.035156 706.984375 482.175781 702.597656 C 482.335938 697.425781 485.351562 693.242188 491.195312 693.269531 C 497.859375 693.285156 498.363281 684.976562 504.269531 684.300781 C 503.523438 682.785156 502.683594 681.3125 502.074219 679.746094 C 501.5625 678.449219 501.320312 677.046875 500.972656 675.683594 C 502.300781 675.417969 503.628906 675.160156 504.929688 674.882812 C 508.234375 674.1875 511.679688 673.84375 514.816406 672.71875 C 522.347656 670.003906 529.449219 664.96875 538.519531 670.183594 C 539.175781 664.011719 539.855469 658.523438 540.300781 653.039062 C 540.464844 650.929688 531.824219 647.015625 529.214844 647.9375 C 525.304688 649.332031 521.429688 650.769531 517.515625 652.1875 C 509.9375 654.933594 503.972656 651.8125 498.890625 646.632812 C 493.34375 640.953125 491.738281 633.785156 494.941406 626.691406 C 497.882812 620.238281 501.773438 613.964844 506.332031 608.535156 C 512.773438 600.828125 526.992188 599.878906 536.257812 605.558594 C 544.582031 610.667969 548.230469 621.667969 544.84375 631.597656 C 544.371094 633.007812 543.269531 634.289062 543.148438 635.691406 C 542.992188 637.523438 543.542969 639.417969 543.773438 641.28125 C 545.417969 640.707031 547.363281 640.511719 548.644531 639.5 C 560.542969 630.0625 573.957031 629.066406 586.117188 637.117188 C 598.5625 645.367188 598.828125 655.339844 596.484375 669.039062 C 594.492188 680.6875 583.5 689.539062 572.265625 689.644531 C 565.230469 689.710938 558.207031 688.273438 551.292969 687.519531 Z M 551.292969 687.519531 " fill-opacity="1" fill-rule="nonzero"/><path fill="#ff3131" d="M 271.871094 722.59375 C 274.066406 716.515625 275 709.488281 278.738281 704.589844 C 284.328125 697.28125 285.382812 689.125 285.625 680.996094 C 285.992188 668.480469 284.582031 655.90625 284.378906 643.359375 C 284.335938 640.246094 285.636719 634.597656 286.941406 634.402344 C 291.8125 633.695312 292.113281 638.753906 292.539062 641.957031 C 293.742188 650.863281 294.40625 659.855469 294.972656 668.835938 C 295.636719 679.339844 298.402344 688.980469 306.222656 696.386719 C 308.890625 698.917969 312.289062 700.871094 315.660156 702.410156 C 324.617188 706.503906 328.078125 711.507812 325.628906 720.8125 C 323.070312 730.507812 320.152344 739.984375 310.660156 746.363281 C 303.09375 751.453125 295.882812 754.566406 287.742188 750.058594 C 279.214844 745.347656 273.929688 737.761719 273.320312 727.597656 C 273.230469 726.097656 273.304688 724.589844 273.304688 723.082031 C 272.828125 722.933594 272.347656 722.765625 271.871094 722.59375 Z M 271.871094 722.59375 " fill-opacity="1" fill-rule="nonzero"/><g clip-path="url(#6b22a6358a)"><path fill="#ff3131" d="M 734.144531 248.480469 C 734.125 257.6875 730.121094 263.648438 722.015625 266.546875 C 713.660156 269.53125 708.511719 267.96875 702.34375 260.566406 C 698.070312 255.425781 696.175781 255.765625 693.183594 262.082031 C 692.152344 264.253906 691.097656 266.441406 689.738281 268.421875 C 684.90625 275.507812 678.875 277.003906 671.914062 272.96875 C 664.210938 268.492188 662.453125 262.789062 666.183594 254.671875 C 669.109375 248.324219 673.089844 243.585938 680.765625 242.839844 C 682.34375 242.683594 684.03125 240.234375 685.035156 238.484375 C 686.8125 235.4375 687.574219 231.667969 689.722656 228.984375 C 696.59375 220.433594 699.277344 220.34375 708.691406 226.027344 C 712.765625 228.484375 717.21875 230.355469 721.625 232.203125 C 728.324219 235.023438 734.160156 242.402344 734.144531 248.480469 Z M 734.144531 248.480469 " fill-opacity="1" fill-rule="nonzero"/></g><path fill="#ff3131" d="M 444.960938 787.339844 C 444.765625 773.371094 454.734375 762.824219 468.144531 762.792969 C 479.824219 762.777344 490.515625 774.261719 490.425781 786.753906 C 490.351562 797.308594 478.90625 808.722656 468.167969 808.957031 C 455.632812 809.214844 445.136719 799.449219 444.960938 787.339844 Z M 444.960938 787.339844 " fill-opacity="1" fill-rule="nonzero"/><path fill="#ff3131" d="M 396.703125 461.28125 C 402.546875 468.128906 406.941406 461.441406 411.941406 460.347656 C 419.667969 458.628906 428.019531 464.035156 430.328125 472.492188 C 430.863281 474.5 430.464844 477.929688 431.527344 478.417969 C 441.628906 483.054688 441.140625 493.355469 444.148438 501.625 C 445.03125 504.070312 444.230469 508.125 442.617188 510.265625 C 440.183594 513.523438 436.964844 512.015625 434.113281 509.496094 C 432.152344 507.769531 429.550781 506.820312 427.34375 505.34375 C 424.6875 503.585938 422.066406 501.761719 419.621094 499.75 C 417.34375 497.878906 415.484375 495.511719 413.183594 493.695312 C 407.234375 488.96875 401.65625 484.148438 399.988281 476.097656 C 399.679688 474.582031 396.453125 473.859375 395.429688 472.238281 C 394.132812 470.230469 393.234375 467.683594 393.144531 465.332031 C 393.089844 464.164062 395.21875 462.886719 396.703125 461.28125 Z M 396.703125 461.28125 " fill-opacity="1" fill-rule="nonzero"/><path fill="#ff3131" d="M 526.605469 320.082031 C 524.421875 311.042969 534.9375 301.824219 542.507812 298.226562 C 546.957031 296.109375 552.835938 296.839844 558.078125 296.671875 C 559.277344 296.628906 561.378906 297.917969 561.628906 298.933594 C 563.535156 307.257812 565.546875 315.613281 566.566406 324.0625 C 567.070312 328.210938 565.40625 332.492188 560.257812 333.730469 C 559.96875 333.804688 559.742188 334.121094 559.472656 334.136719 C 554.625 334.476562 557.617188 344.976562 552.835938 341.320312 C 549.03125 338.402344 545.9375 339.308594 542.574219 338.417969 C 538.527344 337.339844 534.359375 336.640625 530.382812 335.359375 C 529.34375 335.027344 528.378906 333.230469 528.121094 331.957031 C 527.472656 328.722656 527.25 325.421875 526.605469 320.082031 Z M 526.605469 320.082031 " fill-opacity="1" fill-rule="nonzero"/><path fill="#ff3131" d="M 632.65625 369.828125 C 624.152344 370.007812 615.476562 362.109375 615.285156 353.867188 C 615.113281 345.257812 623.632812 333.851562 631.707031 334.332031 C 642.261719 334.972656 651.484375 342.6875 651.582031 352.59375 C 651.671875 362.523438 643.921875 369.570312 632.65625 369.828125 Z M 632.65625 369.828125 " fill-opacity="1" fill-rule="nonzero"/><path fill="#ff3131" d="M 677.320312 381.207031 C 677.5625 389.605469 669.414062 398.371094 661.058594 398.695312 C 652.386719 399.035156 646.144531 392.644531 645.664062 383.527344 C 645.1875 374.570312 651.324219 367.152344 662.160156 365.929688 C 668.765625 365.183594 677.125 374.132812 677.320312 381.207031 Z M 677.320312 381.207031 " fill-opacity="1" fill-rule="nonzero"/><path fill="#ff3131" d="M 375.855469 602.933594 C 366.167969 602.980469 358.054688 594.679688 358.394531 585.085938 C 358.597656 579.160156 367.8125 572.269531 375.628906 572.179688 C 383.992188 572.089844 391.144531 579.78125 390.917969 588.644531 C 390.707031 597.242188 384.746094 602.902344 375.855469 602.933594 Z M 375.855469 602.933594 " fill-opacity="1" fill-rule="nonzero"/><path fill="#ff3131" d="M 565.449219 235.648438 C 557.949219 236.046875 550.484375 233.152344 550.363281 229.761719 C 549.632812 207.722656 552.601562 204.367188 561.039062 204.292969 C 568.269531 204.222656 581.027344 212.902344 581.058594 218.203125 C 581.117188 225.523438 572.378906 235.277344 565.449219 235.648438 Z M 565.449219 235.648438 " fill-opacity="1" fill-rule="nonzero"/><path fill="#ff3131" d="M 618.851562 586.535156 C 617.433594 579.464844 624.207031 571.804688 633.902344 570.71875 C 641.855469 569.835938 648.390625 576.832031 648.695312 585.296875 C 649.101562 596.902344 641.945312 601.691406 634.171875 602.496094 C 625.101562 603.421875 618.914062 596.433594 618.851562 586.535156 Z M 618.851562 586.535156 " fill-opacity="1" fill-rule="nonzero"/><path fill="#ff3131" d="M 282.238281 611.957031 C 277.828125 608.347656 274.207031 604.71875 274.84375 598.003906 C 275.703125 588.789062 282.238281 582.394531 291.453125 583.082031 C 300.597656 583.753906 306.125 592.582031 304.058594 603.144531 C 302.414062 611.460938 295.371094 615.382812 286.285156 613.019531 C 284.863281 612.644531 283.429688 612.191406 282.019531 611.761719 Z M 282.238281 611.957031 " fill-opacity="1" fill-rule="nonzero"/><path fill="#ff3131" d="M 688.261719 142.4375 C 688.003906 147.996094 685.902344 152.441406 680.195312 154.011719 C 677.757812 154.683594 677.285156 155.359375 678.503906 157.515625 C 679.0625 158.527344 679.742188 160.125 679.320312 160.910156 C 677.765625 163.886719 676.339844 167.484375 673.785156 169.164062 C 672.125 170.25 667.03125 169.179688 666.171875 167.621094 C 664.714844 164.921875 663.910156 159.996094 665.429688 157.9375 C 668.3125 154.054688 666.953125 150.867188 667.226562 147.039062 C 667.6875 140.71875 671.71875 134.636719 674.449219 128.558594 C 674.667969 128.058594 676.589844 127.925781 677.53125 128.210938 C 682.992188 129.890625 688.335938 137.121094 688.261719 142.4375 Z M 688.261719 142.4375 " fill-opacity="1" fill-rule="nonzero"/><path fill="#ff3131" d="M 472.8125 419.476562 C 478.25 418.878906 480.730469 423.382812 481.6875 426.796875 C 482.613281 430.128906 481.589844 435.324219 479.351562 437.902344 C 476.742188 440.886719 476.507812 442.75 477.789062 446.058594 C 479.449219 450.320312 478.179688 453.984375 474.09375 456.515625 C 469.886719 459.132812 466.269531 458.09375 462.550781 455.347656 C 457.441406 451.585938 461.027344 447.582031 462.710938 444.445312 C 464.460938 441.144531 464.792969 439.71875 462.347656 436.226562 C 457.457031 429.214844 463.992188 419.46875 472.8125 419.476562 Z M 472.8125 419.476562 " fill-opacity="1" fill-rule="nonzero"/><path fill="#ff3131" d="M 564.359375 128.542969 C 564.003906 131.316406 564.515625 135.902344 563.144531 136.550781 C 557.957031 139.015625 552.21875 141.382812 546.609375 141.570312 C 539.980469 141.796875 533.882812 134.898438 534.019531 129.085938 C 534.054688 127.546875 536.671875 125.917969 536.476562 124.570312 C 536.226562 122.859375 534.320312 121.386719 533.445312 120.234375 C 537.691406 119.625 541.601562 119.140625 545.492188 118.46875 C 550.128906 117.664062 554.351562 117.941406 557.746094 121.800781 C 559.902344 124.253906 562.308594 126.46875 564.605469 128.800781 Z M 564.359375 128.542969 " fill-opacity="1" fill-rule="nonzero"/><path fill="#ff3131" d="M 674.261719 533.628906 C 673.085938 536.269531 672.796875 537.898438 671.832031 538.871094 C 668.425781 542.316406 665.015625 545.371094 664.671875 550.972656 C 664.570312 552.402344 659.46875 554.898438 657.011719 554.523438 C 653.292969 553.941406 650.542969 550.351562 652.773438 546.417969 C 654.890625 542.691406 654.507812 539.503906 654.21875 535.5625 C 653.996094 532.3125 656.066406 527.570312 658.691406 525.859375 C 661.277344 524.136719 666.375 524.238281 669.292969 525.699219 C 671.839844 526.941406 672.871094 531.226562 674.261719 533.628906 Z M 674.261719 533.628906 " fill-opacity="1" fill-rule="nonzero"/><path fill="#ff3131" d="M 296.835938 791.910156 C 296.835938 799.40625 292.5 803.898438 285.367188 803.792969 C 278.867188 803.679688 273.546875 798.363281 273.320312 791.75 C 273.101562 784.929688 277.871094 780.285156 285.328125 780.117188 C 292.484375 779.96875 296.835938 784.414062 296.835938 791.910156 Z M 296.835938 791.910156 " fill-opacity="1" fill-rule="nonzero"/><path fill="#ff3131" d="M 618.867188 106.714844 C 619.585938 108.789062 620.285156 110.863281 621.0625 113.101562 C 624.296875 110.839844 627.054688 108.902344 630.597656 106.421875 C 631.761719 114.113281 633.246094 120.914062 633.675781 127.773438 C 634 132.734375 631.074219 136.347656 625.835938 137.023438 C 621.316406 137.597656 617.457031 134.199219 617.15625 128.8125 C 616.75 121.449219 617.058594 114.050781 617.058594 106.664062 C 617.660156 106.679688 618.265625 106.699219 618.867188 106.714844 Z M 618.867188 106.714844 " fill-opacity="1" fill-rule="nonzero"/><path fill="#ff3131" d="M 620.550781 215.707031 C 626.996094 215.570312 630.871094 220.003906 630.914062 227.582031 C 630.953125 233.410156 626.941406 237.359375 620.675781 237.648438 C 614.847656 237.910156 609.980469 232.753906 609.632812 225.9375 C 609.332031 219.964844 613.71875 215.859375 620.550781 215.707031 Z M 620.550781 215.707031 " fill-opacity="1" fill-rule="nonzero"/><path fill="#ff3131" d="M 632.097656 170.589844 C 626.105469 170.800781 622.28125 166.882812 622.238281 160.449219 C 622.183594 153.859375 626.292969 148.832031 631.886719 148.628906 C 637.25 148.433594 641.832031 153.054688 642.140625 158.972656 C 642.464844 164.84375 637.671875 170.386719 632.097656 170.589844 Z M 632.097656 170.589844 " fill-opacity="1" fill-rule="nonzero"/><path fill="#ff3131" d="M 633.390625 449.640625 C 633.191406 444.339844 638.230469 438.835938 643.402344 438.707031 C 648.324219 438.574219 653.210938 443.40625 653.339844 448.546875 C 653.488281 454.023438 648.65625 459.222656 643.296875 459.398438 C 638.246094 459.570312 633.59375 454.988281 633.390625 449.640625 Z M 633.390625 449.640625 " fill-opacity="1" fill-rule="nonzero"/><path fill="#ff3131" d="M 643.679688 79.746094 C 642.480469 82.566406 641.5625 86.082031 639.632812 88.902344 C 637.511719 92.007812 634.203125 92.269531 631.007812 89.957031 C 626.609375 86.765625 624.402344 76.292969 627.855469 72.117188 C 629.730469 69.839844 633.042969 67.527344 635.710938 67.527344 C 637.777344 67.527344 640.195312 70.84375 641.816406 73.136719 C 642.941406 74.703125 642.980469 77.046875 643.679688 79.746094 Z M 643.679688 79.746094 " fill-opacity="1" fill-rule="nonzero"/><path fill="#ff3131" d="M 684.5 454.519531 C 682.683594 455.289062 680.910156 456.238281 679.023438 456.757812 C 674.085938 458.152344 669.042969 455.664062 667.324219 451.203125 C 665.695312 446.941406 668.039062 441.097656 672.21875 438.988281 C 676.523438 436.808594 681.074219 438.703125 683.972656 443.789062 C 684.957031 445.515625 686.128906 447.144531 687.226562 448.8125 C 688.328125 450.476562 689.421875 452.113281 690.53125 453.757812 C 688.8125 454.625 687.109375 455.492188 685.386719 456.367188 C 685.101562 455.75 684.800781 455.136719 684.5 454.519531 Z M 684.5 454.519531 " fill-opacity="1" fill-rule="nonzero"/><path fill="#ff3131" d="M 694.496094 477.855469 C 699.773438 477.671875 703.074219 480.613281 703.445312 485.859375 C 703.867188 491.6875 698.0625 498.285156 692.605469 498.171875 C 688.078125 498.074219 683.886719 493.28125 683.949219 488.265625 C 683.992188 483.035156 689.074219 478.042969 694.496094 477.855469 Z M 694.496094 477.855469 " fill-opacity="1" fill-rule="nonzero"/><path fill="#ff3131" d="M 714.941406 434.863281 C 709.734375 434.757812 705.714844 430.816406 705.753906 425.816406 C 705.796875 420.726562 710.433594 416.03125 715.539062 415.949219 C 720.636719 415.847656 725.46875 420.75 725.183594 425.679688 C 724.871094 431.175781 720.636719 434.96875 714.941406 434.863281 Z M 714.941406 434.863281 " fill-opacity="1" fill-rule="nonzero"/><path fill="#ff3131" d="M 530.574219 452.921875 C 524.511719 453.011719 521.34375 450.246094 521.140625 444.65625 C 520.914062 438.714844 524.714844 434.148438 529.796875 434.261719 C 534.789062 434.382812 540.691406 440.074219 540.480469 444.589844 C 540.269531 449.136719 535.851562 452.84375 530.574219 452.921875 Z M 530.574219 452.921875 " fill-opacity="1" fill-rule="nonzero"/><path fill="#ff3131" d="M 204.289062 509.777344 C 198.730469 509.835938 194.222656 505.847656 194.078125 500.707031 C 193.921875 496.023438 197.839844 491.574219 202.054688 491.644531 C 207.183594 491.703125 212.851562 496.84375 213.101562 501.664062 C 213.304688 505.90625 209.179688 509.714844 204.289062 509.777344 Z M 204.289062 509.777344 " fill-opacity="1" fill-rule="nonzero"/><path fill="#ff3131" d="M 94.128906 497.402344 C 94.21875 501.898438 90.117188 506.058594 85.59375 506.105469 C 80.40625 506.148438 76.011719 501.566406 76.101562 496.203125 C 76.175781 491.652344 79.953125 488.304688 85.097656 488.257812 C 89.945312 488.234375 94.039062 492.367188 94.128906 497.402344 Z M 94.128906 497.402344 " fill-opacity="1" fill-rule="nonzero"/><path fill="#ff3131" d="M 646.363281 241.085938 C 641.773438 241.257812 637.097656 236.695312 637.105469 232.042969 C 637.121094 227.703125 641.207031 223.328125 645.558594 223.003906 C 649.597656 222.710938 654.5 227.015625 654.847656 231.191406 C 655.253906 235.6875 650.757812 240.917969 646.363281 241.085938 Z M 646.363281 241.085938 " fill-opacity="1" fill-rule="nonzero"/><path fill="#ff3131" d="M 564.589844 128.792969 C 566.078125 123.03125 567.261719 117.152344 569.296875 111.59375 C 569.800781 110.214844 573.539062 108.78125 575.027344 109.363281 C 576.542969 109.949219 577.726562 112.914062 577.964844 114.949219 C 578.289062 117.925781 577.453125 121.003906 577.4375 124.035156 C 577.402344 130.722656 572.945312 132.289062 564.371094 128.542969 Z M 564.589844 128.792969 " fill-opacity="1" fill-rule="nonzero"/><path fill="#ff3131" d="M 685.425781 12.125 C 685.539062 6.109375 689.898438 0.449219 693.652344 1.074219 C 697.957031 1.804688 700.277344 4.867188 700.363281 9.261719 C 700.460938 14.546875 696.488281 18.996094 691.878906 18.917969 C 686.722656 18.835938 685.488281 15.445312 685.425781 12.125 Z M 685.425781 12.125 " fill-opacity="1" fill-rule="nonzero"/><path fill="#ff3131" d="M 693.238281 675.5 C 692.882812 680.371094 689.265625 684.050781 685.351562 683.515625 C 682.078125 683.0625 677.390625 677.121094 678.914062 673.976562 C 680.367188 670.941406 683.859375 666.769531 686.390625 666.816406 C 690.222656 666.890625 694.210938 670.027344 693.238281 675.5 Z M 693.238281 675.5 " fill-opacity="1" fill-rule="nonzero"/><path fill="#ff3131" d="M 256.875 597.535156 C 251.777344 597.835938 250.015625 594.828125 249.824219 590.425781 C 249.652344 585.789062 252.742188 582.839844 257.621094 582.726562 C 262.484375 582.621094 264.816406 585.171875 264.695312 589.800781 C 264.597656 594.746094 261.777344 597.285156 256.875 597.535156 Z M 256.875 597.535156 " fill-opacity="1" fill-rule="nonzero"/><path fill="#ff3131" d="M 657.109375 91.75 C 657.289062 97.058594 654.800781 99.90625 650.089844 99.96875 C 645.382812 100.027344 643.980469 97.148438 643.703125 93.144531 C 643.339844 88.132812 646.175781 83.878906 650.082031 84.226562 C 654.402344 84.609375 657.230469 86.941406 657.109375 91.75 Z M 657.109375 91.75 " fill-opacity="1" fill-rule="nonzero"/><path fill="#ff3131" d="M 193.648438 531.261719 C 193.445312 526.175781 196.445312 524.90625 200.570312 524.96875 C 204.839844 525.042969 209.210938 528.972656 207.65625 532.078125 C 206.269531 534.84375 203.011719 538.011719 200.195312 538.441406 C 195.902344 539.097656 193.023438 536.035156 193.648438 531.261719 Z M 193.648438 531.261719 " fill-opacity="1" fill-rule="nonzero"/><path fill="#ff3131" d="M 594.679688 179.847656 C 593.640625 178.191406 590.664062 175.519531 590.535156 172.722656 C 590.367188 168.976562 592.269531 164.808594 597.363281 164.882812 C 602.671875 164.964844 603.675781 169.269531 603.570312 173.140625 C 603.488281 176.855469 601.601562 180.15625 594.679688 179.847656 Z M 594.679688 179.847656 " fill-opacity="1" fill-rule="nonzero"/><path fill="#ff3131" d="M 281.996094 611.753906 C 283.121094 613.132812 284.839844 614.355469 285.261719 615.917969 C 286.113281 619.097656 288.140625 623.003906 283.066406 624.78125 C 278.972656 626.207031 274.238281 623.652344 273.5 619.324219 C 272.84375 615.472656 273.492188 611.996094 278.671875 611.972656 C 279.863281 611.972656 281.046875 611.957031 282.253906 611.949219 Z M 281.996094 611.753906 " fill-opacity="1" fill-rule="nonzero"/><path fill="#ff3131" d="M 294.414062 467.8125 C 294.746094 472.636719 295.363281 477.445312 295.222656 482.257812 C 295.167969 483.816406 293.125 485.324219 291.980469 486.855469 C 290.757812 485.25 288.457031 483.628906 288.503906 482.070312 C 288.660156 477.21875 289.679688 472.410156 290.367188 467.578125 C 291.730469 467.660156 293.078125 467.726562 294.414062 467.8125 Z M 294.414062 467.8125 " fill-opacity="1" fill-rule="nonzero"/><path fill="#ff3131" d="M 337.253906 588.828125 C 333.28125 591.316406 330.875 594.007812 328.914062 593.71875 C 326.835938 593.417969 325.136719 590.304688 323.277344 588.421875 C 325.289062 586.640625 327.164062 583.648438 329.335938 583.429688 C 331.238281 583.226562 333.476562 586.097656 337.253906 588.828125 Z M 337.253906 588.828125 " fill-opacity="1" fill-rule="nonzero"/><path fill="#ff3131" d="M 710.085938 393.066406 C 707.507812 389.4375 704.304688 386.640625 704.832031 385.292969 C 705.796875 382.804688 708.957031 381.152344 711.195312 379.164062 C 712.621094 381.078125 715.335938 383.089844 715.191406 384.882812 C 715.019531 387.175781 712.566406 389.316406 710.085938 393.066406 Z M 710.085938 393.066406 " fill-opacity="1" fill-rule="nonzero"/><path fill="#ff3131" d="M 615.875 144.828125 C 612.234375 147.453125 609.625 150.597656 608.035156 150.152344 C 605.992188 149.570312 603.730469 146.222656 603.496094 143.871094 C 603.335938 142.332031 606.765625 138.96875 608.359375 139.105469 C 610.523438 139.292969 612.453125 142.046875 615.875 144.828125 Z M 615.875 144.828125 " fill-opacity="1" fill-rule="nonzero"/><path fill="#ff3131" d="M 142.839844 503.539062 C 144.214844 503.003906 145.828125 501.714844 146.890625 502.078125 C 149.339844 502.90625 151.519531 504.558594 153.8125 505.878906 C 152.296875 507.847656 150.773438 509.804688 149.25 511.78125 C 147.199219 510.121094 144.976562 508.652344 143.179688 506.761719 C 142.59375 506.125 143.113281 504.4375 143.128906 503.230469 Z M 142.839844 503.539062 " fill-opacity="1" fill-rule="nonzero"/></svg>