<svg xmlns="http://www.w3.org/2000/svg" xmlns:xlink="http://www.w3.org/1999/xlink" width="1080" zoomAndPan="magnify" viewBox="0 0 810 809.999993" height="1080" preserveAspectRatio="xMidYMid meet" version="1.0"><defs><clipPath id="66780ca493"><path d="M 7.363281 147 L 81 147 L 81 222 L 7.363281 222 Z M 7.363281 147 " clip-rule="nonzero"/></clipPath><clipPath id="a8d01c79ac"><path d="M 790 93 L 802.363281 93 L 802.363281 104 L 790 104 Z M 790 93 " clip-rule="nonzero"/></clipPath></defs><path fill="#ff3131" d="M 299.195312 320.316406 C 305.332031 321.46875 312.960938 317.078125 315.285156 325.5625 C 316.382812 329.558594 317.617188 334.96875 312.667969 337.503906 C 305.539062 341.167969 301.210938 334.898438 295.011719 330.453125 C 292.191406 342.519531 289.574219 353.703125 286.929688 364.882812 C 281.742188 386.882812 275.851562 408.742188 271.609375 430.910156 C 269.523438 441.832031 269.675781 453.371094 270.226562 464.558594 C 271.59375 492.105469 274.066406 519.621094 275.425781 547.160156 C 275.769531 554.171875 274.230469 561.441406 272.449219 568.308594 C 270.46875 575.964844 265.230469 579.667969 258.984375 579.546875 C 251.398438 579.402344 243.804688 574.382812 241.878906 567.554688 C 236.847656 549.707031 234.203125 531.476562 232.960938 512.960938 C 231.671875 493.757812 229.386719 474.609375 227.839844 455.414062 C 227.40625 450.011719 224.070312 451.75 221.449219 452.273438 C 206.566406 455.289062 192.96875 451.605469 180.195312 444.28125 C 165.671875 435.941406 158.871094 420.6875 162.667969 405.820312 C 163.074219 404.242188 163.371094 402.226562 164.464844 401.3125 C 170.957031 395.820312 177.203125 389.726562 184.519531 385.613281 C 188.59375 383.320312 194.730469 383.511719 199.699219 384.246094 C 210.949219 385.851562 221.546875 389.78125 231.015625 396.324219 C 232.097656 397.0625 233.320312 397.621094 235.40625 398.765625 C 237.953125 387.9375 240.472656 377.851562 242.6875 367.691406 C 245.332031 355.574219 247.636719 343.390625 250.230469 331.261719 C 251.292969 326.292969 250.101562 323.097656 245.21875 320.632812 C 241.128906 318.542969 237.503906 315.3125 234.148438 312.074219 C 224.609375 302.851562 223.25 294.730469 228.109375 282.152344 C 229.136719 279.480469 229.296875 276.265625 229.117188 273.367188 C 228.324219 260.339844 228.621094 259.5625 238.394531 253.894531 C 234.265625 242.980469 230.339844 232.132812 226.019531 221.441406 C 224.953125 218.804688 222.828125 216.492188 220.828125 214.371094 C 217.050781 210.367188 212.632812 206.925781 209.15625 202.707031 C 199.65625 191.179688 198.214844 178.105469 204.082031 164.6875 C 209.886719 151.421875 221.53125 145.859375 235.253906 145.148438 C 242.222656 144.78125 249.304688 146.488281 257.148438 147.351562 C 258.15625 139.863281 259.199219 131.972656 260.28125 124.089844 C 261.53125 115.074219 262.441406 105.964844 267.875 98.164062 C 268.335938 97.496094 268.734375 96.730469 268.9375 95.941406 C 274.898438 72.40625 290.636719 56.328125 310.109375 43.621094 C 318.535156 38.121094 328.664062 36.769531 338.835938 38.238281 C 342.9375 38.832031 346.746094 39.820312 350.390625 36.339844 C 353.152344 33.695312 356.664062 34.394531 359.253906 37.167969 C 361.523438 39.613281 363.933594 42.574219 361.386719 45.957031 C 356.601562 52.3125 362.746094 57.332031 363.152344 63.046875 C 363.214844 63.839844 365.160156 64.613281 366.335938 65.207031 C 374.140625 69.148438 382.121094 72.785156 389.746094 77.050781 C 393.777344 79.300781 396.378906 80.046875 400.445312 76.421875 C 416.375 62.238281 435.207031 58.097656 455.886719 62.554688 C 463.25 64.148438 468.746094 68.683594 472.148438 75.539062 C 475.058594 81.417969 478.558594 87.074219 480.746094 93.207031 C 483.515625 100.945312 485.539062 108.996094 487.277344 117.035156 C 488.421875 122.355469 491.265625 125.234375 496.941406 126.539062 C 497.375 125.125 498.023438 123.71875 498.210938 122.238281 C 501.234375 97.648438 524.777344 83.375 549.679688 87.605469 C 572.878906 91.546875 588.222656 109.375 584.332031 133.601562 C 583.945312 136.003906 583.9375 138.605469 584.441406 140.953125 C 586.222656 149.378906 582.914062 155.542969 576.179688 160.105469 C 571.625 163.191406 566.648438 165.691406 562.132812 168.832031 C 557.363281 172.136719 552.59375 175.746094 552.585938 182.449219 C 552.574219 185.132812 552.097656 188.324219 556.957031 186.636719 C 560.519531 185.410156 560.902344 187.875 560.59375 190.890625 C 560.160156 195.246094 559.488281 199.746094 560.1875 203.976562 C 561.160156 209.78125 564.300781 211.078125 570.097656 209.769531 C 572.480469 209.230469 575.046875 208.945312 577.433594 209.242188 C 581.757812 209.78125 584.992188 212.707031 584.710938 216.863281 C 584.542969 219.488281 581.90625 223.457031 579.617188 224.117188 C 573.523438 225.851562 573.96875 229.417969 574.613281 234.167969 C 575.855469 243.167969 577.054688 252.222656 577.332031 261.285156 C 577.476562 266.054688 578.738281 268.546875 582.972656 270.914062 C 610.195312 286.046875 637.472656 301.15625 664.253906 317.058594 C 685.816406 329.855469 706.832031 343.589844 727.816406 357.324219 C 732.8125 360.605469 736.769531 362.074219 742.800781 359.839844 C 752.296875 356.332031 760.761719 359.960938 767.59375 366.878906 C 774.683594 374.058594 777.367188 382.933594 774.835938 392.742188 C 772.246094 402.734375 763.183594 407.421875 752.753906 404.835938 C 742.476562 402.273438 728.554688 390.292969 729.320312 377.949219 C 729.570312 373.765625 726.789062 372.351562 723.917969 370.558594 C 700.578125 355.875 677.222656 341.214844 654.015625 326.339844 C 636.851562 315.332031 620.179688 303.507812 602.671875 293.101562 C 596.035156 289.160156 587.761719 287.765625 580.066406 285.902344 C 575.144531 284.714844 571.195312 286.75 568.339844 291.511719 C 565.480469 296.273438 566.667969 300.277344 569.820312 303.5625 C 574.730469 308.71875 580.09375 313.488281 585.59375 318.023438 C 593.207031 324.3125 601.890625 329.386719 606.328125 338.902344 C 613.285156 353.875 601.378906 374.996094 585.492188 375.601562 C 574.992188 376.015625 569.96875 370.730469 571.097656 360.390625 C 571.464844 357.089844 571.746094 353.75 572.625 350.582031 C 575.199219 341.25 572.128906 334.003906 565.523438 327.402344 C 560.152344 322.027344 555.394531 316.015625 550.109375 309.976562 C 542.882812 315.492188 538.941406 323.601562 537.601562 332.207031 C 535.34375 346.875 534.335938 361.765625 533.289062 376.597656 C 532.34375 390.070312 531.761719 403.585938 531.578125 417.09375 C 531.492188 422.820312 533.15625 428.558594 533.445312 434.3125 C 534.109375 447.234375 535.199219 460.210938 534.621094 473.097656 C 534.054688 486.179688 528.160156 497.113281 515.824219 503.128906 C 511.683594 505.152344 513.050781 508.058594 513.285156 510.777344 C 514.292969 522.585938 515.851562 534.363281 516.589844 546.195312 C 517.15625 555.25 516.40625 564.382812 517 573.429688 C 517.453125 580.503906 518.394531 587.71875 520.375 594.523438 C 522.984375 603.476562 526.550781 612.1875 530.203125 620.785156 C 536.230469 635 536.808594 649.195312 530.816406 663.414062 C 525.128906 676.894531 522.722656 690.777344 524.101562 705.355469 C 524.5 709.46875 524.382812 713.644531 524.121094 717.769531 C 523.453125 727.960938 518.394531 734.0625 508.675781 736.800781 C 488.300781 742.523438 469.164062 728.316406 467.882812 706.457031 C 467.253906 695.773438 469.980469 686.371094 477.902344 678.640625 C 479.546875 677.046875 481.03125 673.714844 480.535156 671.691406 C 477.136719 657.90625 478 644.125 481.195312 630.707031 C 487.503906 604.269531 486.953125 577.621094 485.082031 550.902344 C 481.722656 502.765625 478.144531 454.640625 474.164062 406.554688 C 472.554688 387.089844 469.765625 367.664062 462.375 349.320312 C 458.351562 339.316406 451.417969 333.132812 440.023438 332.78125 C 433.972656 332.589844 430.800781 329.054688 429.558594 323.050781 C 428.945312 320.074219 427.605469 317.257812 426.027344 312.742188 C 416.371094 328.617188 411.613281 343.769531 410.738281 360.398438 C 408.355469 405.871094 405.933594 451.34375 402.902344 496.773438 C 400.8125 528.164062 398.726562 559.363281 401.390625 590.960938 C 403.519531 616.148438 402.460938 641.714844 401.578125 667.046875 C 400.417969 700.238281 401.523438 733.234375 405.503906 766.191406 C 406.519531 774.605469 405.621094 783.261719 405.519531 791.796875 C 405.503906 793.433594 405.242188 795.105469 404.871094 796.714844 C 402.980469 804.789062 397.566406 810.007812 391.136719 810.089844 C 382.195312 810.214844 374.6875 804.746094 373.589844 796.003906 C 371.496094 779.320312 369.164062 762.574219 368.621094 745.808594 C 367.34375 706.363281 366.851562 666.878906 366.453125 627.425781 C 366.128906 595.433594 366.21875 563.4375 366.515625 531.445312 C 366.589844 522.664062 367.589844 513.792969 368.992188 505.109375 C 371.289062 490.824219 370.3125 476.542969 370.082031 462.234375 C 370.007812 457.753906 368.53125 456.90625 364.195312 457.097656 C 355.601562 457.492188 352.695312 455.636719 350.417969 447.117188 C 347.953125 437.882812 345.601562 428.34375 345.277344 418.867188 C 344.542969 397.359375 345.199219 375.808594 345.046875 354.28125 C 344.957031 341.449219 342.34375 329.089844 336.515625 317.546875 C 333.191406 310.964844 329.296875 305.0625 320.578125 305.359375 C 319 305.421875 317.050781 304.957031 315.859375 304.019531 C 310.414062 299.691406 307.644531 302.492188 305.367188 307.492188 C 303.453125 311.578125 301.398438 315.71875 299.195312 320.316406 Z M 299.195312 320.316406 " fill-opacity="1" fill-rule="nonzero"/><path fill="#ff3131" d="M 702.054688 278.804688 C 692.308594 284.859375 683.414062 284.160156 675.15625 275.769531 C 673.859375 274.441406 670.859375 274.179688 668.730469 274.375 C 661.519531 275.0625 654.726562 271.234375 653.878906 265.585938 C 652.945312 259.402344 658.082031 252.050781 665.039062 251.453125 C 671.25 250.917969 677.65625 251.777344 683.925781 252.457031 C 689.101562 253.03125 694.1875 254.328125 699.34375 255.191406 C 706.824219 256.429688 712.808594 255.226562 718.359375 248.65625 C 727.160156 238.238281 747.230469 237.972656 759.46875 246.785156 C 777.089844 259.480469 779.527344 284.472656 764.523438 298.609375 C 755.175781 307.414062 739.757812 309.375 728.410156 302.4375 C 720.679688 297.710938 713.410156 292.1875 706.28125 286.578125 C 704.363281 285.050781 703.707031 281.960938 702.054688 278.804688 Z M 702.054688 278.804688 " fill-opacity="1" fill-rule="nonzero"/><g clip-path="url(#66780ca493)"><path fill="#ff3131" d="M 80.226562 185.222656 C 79.019531 213.445312 61.253906 225.140625 38.828125 220.019531 C 14.71875 214.503906 0.359375 186.410156 11.480469 165.289062 C 18.832031 151.320312 32.277344 146.21875 48.546875 147.558594 C 64.46875 148.855469 74.917969 159.113281 78.570312 174.917969 C 79.425781 178.652344 79.800781 182.503906 80.226562 185.222656 Z M 80.226562 185.222656 " fill-opacity="1" fill-rule="nonzero"/></g><path fill="#ff3131" d="M 218.902344 41.242188 C 218.824219 57.71875 207.914062 65.660156 193.847656 60.816406 C 181.917969 56.703125 171.332031 50.503906 163.800781 39.957031 C 155.753906 28.664062 156.628906 16.847656 166.339844 7.011719 C 174.492188 -1.242188 190.347656 -2.511719 199.804688 4.929688 C 212 14.5 217.671875 27.644531 218.902344 41.242188 Z M 218.902344 41.242188 " fill-opacity="1" fill-rule="nonzero"/><path fill="#ff3131" d="M 119.363281 242.132812 C 109.203125 242.238281 101.851562 234.355469 101.886719 223.394531 C 101.921875 211.859375 109.777344 202.832031 119.847656 202.699219 C 130.449219 202.554688 137.792969 210.050781 137.722656 220.957031 C 137.648438 232.980469 129.808594 242.023438 119.363281 242.132812 Z M 119.363281 242.132812 " fill-opacity="1" fill-rule="nonzero"/><path fill="#ff3131" d="M 190.332031 246.121094 C 191.546875 247 194.273438 248.59375 196.539062 250.691406 C 198.554688 252.5625 197.3125 258.394531 203.089844 255.503906 C 205.808594 254.144531 210.191406 258.234375 212.0625 252.816406 C 212.28125 252.175781 215.179688 252.464844 216.832031 252.328125 C 216.691406 253.992188 217.164062 256.613281 216.320312 257.140625 C 213.199219 259.085938 214.261719 260.722656 215.5625 263.15625 C 217.996094 267.734375 219.039062 272.660156 215.195312 277.046875 C 211.804688 280.910156 207.203125 282.027344 202.40625 280.453125 C 197.207031 278.757812 194.058594 274.738281 194.351562 269.246094 C 194.640625 263.675781 191.183594 264.773438 187.953125 264.578125 C 181.527344 264.1875 177.523438 260.292969 177.894531 255.046875 C 178.21875 250.546875 183.1875 246.308594 190.332031 246.121094 Z M 190.332031 246.121094 " fill-opacity="1" fill-rule="nonzero"/><path fill="#ff3131" d="M 250.480469 70.328125 C 259.039062 70.328125 265.753906 76.386719 265.796875 84.144531 C 265.835938 91.898438 258.148438 100.160156 250.90625 100.144531 C 242.996094 100.125 234.085938 90.890625 234.113281 82.722656 C 234.140625 75.214844 240.589844 70.328125 250.480469 70.328125 Z M 250.480469 70.328125 " fill-opacity="1" fill-rule="nonzero"/><path fill="#ff3131" d="M 404.125 21.6875 C 406.96875 25.324219 412.855469 26.925781 410.363281 33.199219 C 408.113281 38.878906 401.003906 44.132812 394.988281 44.183594 C 389.355469 44.238281 385.152344 40.414062 384.445312 34.613281 C 383.550781 27.296875 387.296875 21.789062 394.035156 20.519531 C 397.035156 19.960938 401.949219 21.847656 400.34375 15.371094 C 400.253906 15.003906 403.933594 12.894531 404.519531 13.335938 C 405.851562 14.34375 406.949219 16.441406 406.996094 18.132812 C 407.042969 19.285156 405.152344 20.5 404.125 21.6875 Z M 404.125 21.6875 " fill-opacity="1" fill-rule="nonzero"/><path fill="#ff3131" d="M 687.246094 104.707031 C 693.980469 104.632812 698.28125 108.664062 698.328125 115.117188 C 698.414062 122.300781 693.601562 127.679688 687.058594 127.742188 C 681.171875 127.796875 675.667969 123.785156 675.503906 119.335938 C 675.199219 110.375 679.671875 104.804688 687.246094 104.707031 Z M 687.246094 104.707031 " fill-opacity="1" fill-rule="nonzero"/><path fill="#ff3131" d="M 214.089844 85.5625 C 221.277344 85.714844 226.375 90.710938 225.625 96.707031 C 225.375 98.660156 222.828125 101.3125 220.835938 101.863281 C 216.394531 103.105469 207.996094 98.027344 205.789062 93.78125 C 204.179688 90.695312 204.945312 88.460938 208.070312 87.246094 C 210.335938 86.375 212.765625 85.921875 214.089844 85.5625 Z M 214.089844 85.5625 " fill-opacity="1" fill-rule="nonzero"/><path fill="#ff3131" d="M 624.515625 109.898438 C 629.347656 109.761719 633.226562 112.984375 633.578125 117.4375 C 633.917969 121.757812 629.484375 127.300781 625.660156 127.363281 C 621.609375 127.421875 617.082031 121.859375 617.179688 116.925781 C 617.226562 112.6875 620.035156 110.015625 624.515625 109.898438 Z M 624.515625 109.898438 " fill-opacity="1" fill-rule="nonzero"/><path fill="#ff3131" d="M 590.300781 136.949219 C 593.351562 133.25 595.402344 130.777344 597.4375 128.320312 C 600.011719 130.757812 603.304688 132.792969 604.96875 135.746094 C 606.28125 138.082031 600.835938 143.988281 597.933594 143.1875 C 595.449219 142.5 593.539062 139.714844 590.300781 136.949219 Z M 590.300781 136.949219 " fill-opacity="1" fill-rule="nonzero"/><path fill="#ff3131" d="M 729.84375 233.628906 C 732.441406 230.28125 733.9375 227.570312 736.152344 225.746094 C 737.699219 224.484375 741.34375 223.351562 742.089844 224.117188 C 744 226.035156 745.375 228.976562 745.753906 231.683594 C 745.894531 232.566406 742.421875 234.808594 740.46875 234.976562 C 737.375 235.210938 734.152344 234.242188 729.84375 233.628906 Z M 729.84375 233.628906 " fill-opacity="1" fill-rule="nonzero"/><path fill="#ff3131" d="M 663.535156 129.417969 C 660.863281 126.4375 658.0625 124.753906 658.019531 122.992188 C 657.921875 119.105469 660.664062 116.035156 664.769531 116.621094 C 667.253906 116.980469 669.441406 119.4375 671.753906 120.964844 C 669.359375 123.441406 666.964844 125.90625 663.535156 129.417969 Z M 663.535156 129.417969 " fill-opacity="1" fill-rule="nonzero"/><path fill="#ff3131" d="M 233.058594 66.621094 C 233.21875 61.332031 234.257812 58.820312 238.242188 58.820312 C 242.183594 58.820312 243.570312 61.660156 243.667969 64.703125 C 243.769531 67.816406 242.195312 71.121094 238.441406 70.417969 C 236.152344 69.984375 234.253906 67.511719 233.058594 66.621094 Z M 233.058594 66.621094 " fill-opacity="1" fill-rule="nonzero"/><path fill="#ff3131" d="M 196.753906 481.421875 C 193.066406 484.445312 190.789062 486.476562 188.234375 488.105469 C 188.042969 488.226562 185.199219 485.515625 184.929688 483.898438 C 184.402344 480.726562 185.578125 477.425781 189.339844 477.34375 C 191.222656 477.289062 193.167969 479.351562 196.753906 481.421875 Z M 196.753906 481.421875 " fill-opacity="1" fill-rule="nonzero"/><path fill="#ff3131" d="M 616.957031 78.039062 C 616.109375 78.714844 613.949219 80.855469 613.625 80.597656 C 611.015625 78.617188 608.757812 76.167969 606.390625 73.867188 C 607.859375 72.738281 609.304688 70.699219 610.808594 70.652344 C 614.652344 70.554688 616.597656 73.164062 616.957031 78.039062 Z M 616.957031 78.039062 " fill-opacity="1" fill-rule="nonzero"/><g clip-path="url(#a8d01c79ac)"><path fill="#ff3131" d="M 790.660156 98.777344 C 793.878906 96.238281 795.644531 93.789062 797.605469 93.621094 C 799.171875 93.484375 802.519531 96.40625 802.332031 97.503906 C 801.953125 99.683594 800.027344 102.652344 798.136719 103.203125 C 796.605469 103.636719 794.183594 100.996094 790.660156 98.777344 Z M 790.660156 98.777344 " fill-opacity="1" fill-rule="nonzero"/></g></svg>